<svg xmlns="http://www.w3.org/2000/svg" width="232" height="252" viewBox="0 0 232 252">
<rect width="232" height="252" rx="10" fill="#1e1e2e"/>
<rect width="232" height="36" rx="10" fill="#313244"/>
<rect x="0" y="26" width="232" height="10" fill="#313244"/>
<circle cx="18" cy="18" r="6" fill="#f38ba8"/>
<circle cx="40" cy="18" r="6" fill="#f9e2af"/>
<circle cx="62" cy="18" r="6" fill="#a6e3a1"/>
<text x="116" y="23" text-anchor="middle" fill="#cdd6f4" font-family="monospace" font-size="13">terminal-pet</text>
<text x="20" y="48" fill="#a6e3a1" font-family="monospace" font-size="12">~/projects/myapp $</text>
<text x="153.2" y="48" fill="#cdd6f4" font-family="monospace" font-size="12">git status</text>
<text x="20" y="64" fill="#7f849c" font-family="monospace" font-size="12">On branch main</text>
<text x="20" y="80" fill="#7f849c" font-family="monospace" font-size="12">nothing to commit, working tree clean</text>
<text x="20" y="96" fill="#a6e3a1" font-family="monospace" font-size="12">~/projects/myapp $</text>
<text x="153.2" y="96" fill="#cdd6f4" font-family="monospace" font-size="12">npm test</text>
<text x="20" y="112" fill="#7f849c" font-family="monospace" font-size="12">Tests: 14 passed, 14 total</text>
<rect x="60" y="140" width="8" height="4" fill="rgb(65,40,20)"/>
<rect x="68" y="140" width="8" height="4" fill="rgb(65,40,20)"/>
<rect x="156" y="140" width="8" height="4" fill="rgb(65,40,20)"/>
<rect x="164" y="140" width="8" height="4" fill="rgb(65,40,20)"/>
<rect x="44" y="148" width="8" height="4" fill="rgb(65,40,20)"/>
<rect x="52" y="144" width="8" height="4" fill="rgb(65,40,20)"/>
<rect x="52" y="148" width="8" height="4" fill="rgb(210,155,80)"/>
<rect x="60" y="144" width="8" height="4" fill="rgb(210,155,80)"/>
<rect x="60" y="148" width="8" height="4" fill="rgb(210,155,80)"/>
<rect x="68" y="144" width="8" height="4" fill="rgb(210,155,80)"/>
<rect x="68" y="148" width="8" height="4" fill="rgb(245,225,185)"/>
<rect x="76" y="144" width="8" height="4" fill="rgb(65,40,20)"/>
<rect x="76" y="148" width="8" height="4" fill="rgb(210,155,80)"/>
<rect x="84" y="148" width="8" height="4" fill="rgb(65,40,20)"/>
<rect x="140" y="148" width="8" height="4" fill="rgb(65,40,20)"/>
<rect x="148" y="144" width="8" height="4" fill="rgb(65,40,20)"/>
<rect x="148" y="148" width="8" height="4" fill="rgb(210,155,80)"/>
<rect x="156" y="144" width="8" height="4" fill="rgb(210,155,80)"/>
<rect x="156" y="148" width="8" height="4" fill="rgb(245,225,185)"/>
<rect x="164" y="144" width="8" height="4" fill="rgb(210,155,80)"/>
<rect x="164" y="148" width="8" height="4" fill="rgb(210,155,80)"/>
<rect x="172" y="144" width="8" height="4" fill="rgb(65,40,20)"/>
<rect x="172" y="148" width="8" height="4" fill="rgb(210,155,80)"/>
<rect x="180" y="148" width="8" height="4" fill="rgb(65,40,20)"/>
<rect x="44" y="152" width="8" height="4" fill="rgb(65,40,20)"/>
<rect x="52" y="152" width="8" height="4" fill="rgb(210,155,80)"/>
<rect x="52" y="156" width="8" height="4" fill="rgb(65,40,20)"/>
<rect x="60" y="152" width="8" height="4" fill="rgb(245,225,185)"/>
<rect x="60" y="156" width="8" height="4" fill="rgb(65,40,20)"/>
<rect x="68" y="152" width="8" height="4" fill="rgb(245,225,185)"/>
<rect x="68" y="156" width="8" height="4" fill="rgb(65,40,20)"/>
<rect x="76" y="152" width="8" height="4" fill="rgb(65,40,20)"/>
<rect x="76" y="156" width="8" height="4" fill="rgb(210,155,80)"/>
<rect x="84" y="152" width="8" height="4" fill="rgb(65,40,20)"/>
<rect x="84" y="156" width="8" height="4" fill="rgb(245,225,185)"/>
<rect x="92" y="152" width="8" height="4" fill="rgb(65,40,20)"/>
<rect x="92" y="156" width="8" height="4" fill="rgb(245,225,185)"/>
<rect x="100" y="152" width="8" height="4" fill="rgb(65,40,20)"/>
<rect x="100" y="156" width="8" height="4" fill="rgb(245,225,185)"/>
<rect x="108" y="152" width="8" height="4" fill="rgb(65,40,20)"/>
<rect x="108" y="156" width="8" height="4" fill="rgb(245,225,185)"/>
<rect x="116" y="152" width="8" height="4" fill="rgb(65,40,20)"/>
<rect x="116" y="156" width="8" height="4" fill="rgb(245,225,185)"/>
<rect x="124" y="152" width="8" height="4" fill="rgb(65,40,20)"/>
<rect x="124" y="156" width="8" height="4" fill="rgb(245,225,185)"/>
<rect x="132" y="152" width="8" height="4" fill="rgb(65,40,20)"/>
<rect x="132" y="156" width="8" height="4" fill="rgb(245,225,185)"/>
<rect x="140" y="152" width="8" height="4" fill="rgb(65,40,20)"/>
<rect x="140" y="156" width="8" height="4" fill="rgb(245,225,185)"/>
<rect x="148" y="152" width="8" height="4" fill="rgb(65,40,20)"/>
<rect x="148" y="156" width="8" height="4" fill="rgb(210,155,80)"/>
<rect x="156" y="152" width="8" height="4" fill="rgb(245,225,185)"/>
<rect x="156" y="156" width="8" height="4" fill="rgb(65,40,20)"/>
<rect x="164" y="152" width="8" height="4" fill="rgb(245,225,185)"/>
<rect x="164" y="156" width="8" height="4" fill="rgb(65,40,20)"/>
<rect x="172" y="152" width="8" height="4" fill="rgb(210,155,80)"/>
<rect x="172" y="156" width="8" height="4" fill="rgb(65,40,20)"/>
<rect x="180" y="152" width="8" height="4" fill="rgb(65,40,20)"/>
<rect x="68" y="160" width="8" height="4" fill="rgb(65,40,20)"/>
<rect x="68" y="164" width="8" height="4" fill="rgb(65,40,20)"/>
<rect x="76" y="160" width="8" height="4" fill="rgb(210,155,80)"/>
<rect x="76" y="164" width="8" height="4" fill="rgb(245,225,185)"/>
<rect x="84" y="160" width="8" height="4" fill="rgb(245,225,185)"/>
<rect x="84" y="164" width="8" height="4" fill="rgb(245,225,185)"/>
<rect x="92" y="160" width="8" height="4" fill="rgb(245,225,185)"/>
<rect x="92" y="164" width="8" height="4" fill="rgb(245,225,185)"/>
<rect x="100" y="160" width="8" height="4" fill="rgb(245,225,185)"/>
<rect x="100" y="164" width="8" height="4" fill="rgb(245,225,185)"/>
<rect x="108" y="160" width="8" height="4" fill="rgb(245,225,185)"/>
<rect x="108" y="164" width="8" height="4" fill="rgb(245,225,185)"/>
<rect x="116" y="160" width="8" height="4" fill="rgb(245,225,185)"/>
<rect x="116" y="164" width="8" height="4" fill="rgb(245,225,185)"/>
<rect x="124" y="160" width="8" height="4" fill="rgb(245,225,185)"/>
<rect x="124" y="164" width="8" height="4" fill="rgb(245,225,185)"/>
<rect x="132" y="160" width="8" height="4" fill="rgb(245,225,185)"/>
<rect x="132" y="164" width="8" height="4" fill="rgb(245,225,185)"/>
<rect x="140" y="160" width="8" height="4" fill="rgb(245,225,185)"/>
<rect x="140" y="164" width="8" height="4" fill="rgb(245,225,185)"/>
<rect x="148" y="160" width="8" height="4" fill="rgb(210,155,80)"/>
<rect x="148" y="164" width="8" height="4" fill="rgb(245,225,185)"/>
<rect x="156" y="160" width="8" height="4" fill="rgb(65,40,20)"/>
<rect x="156" y="164" width="8" height="4" fill="rgb(65,40,20)"/>
<rect x="68" y="168" width="8" height="4" fill="rgb(65,40,20)"/>
<rect x="68" y="172" width="8" height="4" fill="rgb(65,40,20)"/>
<rect x="76" y="168" width="8" height="4" fill="rgb(245,225,185)"/>
<rect x="76" y="172" width="8" height="4" fill="rgb(245,225,185)"/>
<rect x="84" y="168" width="8" height="4" fill="rgb(20,15,10)"/>
<rect x="84" y="172" width="8" height="4" fill="rgb(245,225,185)"/>
<rect x="92" y="168" width="8" height="4" fill="rgb(255,255,255)"/>
<rect x="92" y="172" width="8" height="4" fill="rgb(245,225,185)"/>
<rect x="100" y="168" width="8" height="4" fill="rgb(245,225,185)"/>
<rect x="100" y="172" width="8" height="4" fill="rgb(245,225,185)"/>
<rect x="108" y="168" width="8" height="4" fill="rgb(245,225,185)"/>
<rect x="108" y="172" width="8" height="4" fill="rgb(245,225,185)"/>
<rect x="116" y="168" width="8" height="4" fill="rgb(245,225,185)"/>
<rect x="116" y="172" width="8" height="4" fill="rgb(245,225,185)"/>
<rect x="124" y="168" width="8" height="4" fill="rgb(245,225,185)"/>
<rect x="124" y="172" width="8" height="4" fill="rgb(245,225,185)"/>
<rect x="132" y="168" width="8" height="4" fill="rgb(255,255,255)"/>
<rect x="132" y="172" width="8" height="4" fill="rgb(245,225,185)"/>
<rect x="140" y="168" width="8" height="4" fill="rgb(20,15,10)"/>
<rect x="140" y="172" width="8" height="4" fill="rgb(245,225,185)"/>
<rect x="148" y="168" width="8" height="4" fill="rgb(245,225,185)"/>
<rect x="148" y="172" width="8" height="4" fill="rgb(245,225,185)"/>
<rect x="156" y="168" width="8" height="4" fill="rgb(65,40,20)"/>
<rect x="156" y="172" width="8" height="4" fill="rgb(65,40,20)"/>
<rect x="76" y="176" width="8" height="4" fill="rgb(65,40,20)"/>
<rect x="76" y="180" width="8" height="4" fill="rgb(65,40,20)"/>
<rect x="84" y="176" width="8" height="4" fill="rgb(245,225,185)"/>
<rect x="84" y="180" width="8" height="4" fill="rgb(245,225,185)"/>
<rect x="92" y="176" width="8" height="4" fill="rgb(245,225,185)"/>
<rect x="92" y="180" width="8" height="4" fill="rgb(245,225,185)"/>
<rect x="100" y="176" width="8" height="4" fill="rgb(245,225,185)"/>
<rect x="100" y="180" width="8" height="4" fill="rgb(245,225,185)"/>
<rect x="108" y="176" width="8" height="4" fill="rgb(45,30,25)"/>
<rect x="108" y="180" width="8" height="4" fill="rgb(245,225,185)"/>
<rect x="116" y="176" width="8" height="4" fill="rgb(45,30,25)"/>
<rect x="116" y="180" width="8" height="4" fill="rgb(245,225,185)"/>
<rect x="124" y="176" width="8" height="4" fill="rgb(245,225,185)"/>
<rect x="124" y="180" width="8" height="4" fill="rgb(245,225,185)"/>
<rect x="132" y="176" width="8" height="4" fill="rgb(245,225,185)"/>
<rect x="132" y="180" width="8" height="4" fill="rgb(245,225,185)"/>
<rect x="140" y="176" width="8" height="4" fill="rgb(245,225,185)"/>
<rect x="140" y="180" width="8" height="4" fill="rgb(245,225,185)"/>
<rect x="148" y="176" width="8" height="4" fill="rgb(65,40,20)"/>
<rect x="148" y="180" width="8" height="4" fill="rgb(65,40,20)"/>
<rect x="76" y="188" width="8" height="4" fill="rgb(220,65,55)"/>
<rect x="84" y="184" width="8" height="4" fill="rgb(65,40,20)"/>
<rect x="84" y="188" width="8" height="4" fill="rgb(220,65,55)"/>
<rect x="92" y="184" width="8" height="4" fill="rgb(245,225,185)"/>
<rect x="92" y="188" width="8" height="4" fill="rgb(220,65,55)"/>
<rect x="100" y="184" width="8" height="4" fill="rgb(245,225,185)"/>
<rect x="100" y="188" width="8" height="4" fill="rgb(220,65,55)"/>
<rect x="108" y="184" width="8" height="4" fill="rgb(245,225,185)"/>
<rect x="108" y="188" width="8" height="4" fill="rgb(220,65,55)"/>
<rect x="116" y="184" width="8" height="4" fill="rgb(245,225,185)"/>
<rect x="116" y="188" width="8" height="4" fill="rgb(220,65,55)"/>
<rect x="124" y="184" width="8" height="4" fill="rgb(245,225,185)"/>
<rect x="124" y="188" width="8" height="4" fill="rgb(220,65,55)"/>
<rect x="132" y="184" width="8" height="4" fill="rgb(245,225,185)"/>
<rect x="132" y="188" width="8" height="4" fill="rgb(220,65,55)"/>
<rect x="140" y="184" width="8" height="4" fill="rgb(65,40,20)"/>
<rect x="140" y="188" width="8" height="4" fill="rgb(220,65,55)"/>
<rect x="148" y="188" width="8" height="4" fill="rgb(220,65,55)"/>
<rect x="60" y="196" width="8" height="4" fill="rgb(65,40,20)"/>
<rect x="68" y="192" width="8" height="4" fill="rgb(65,40,20)"/>
<rect x="68" y="196" width="8" height="4" fill="rgb(210,155,80)"/>
<rect x="76" y="192" width="8" height="4" fill="rgb(210,155,80)"/>
<rect x="76" y="196" width="8" height="4" fill="rgb(210,155,80)"/>
<rect x="84" y="192" width="8" height="4" fill="rgb(210,155,80)"/>
<rect x="84" y="196" width="8" height="4" fill="rgb(245,225,185)"/>
<rect x="92" y="192" width="8" height="4" fill="rgb(210,155,80)"/>
<rect x="92" y="196" width="8" height="4" fill="rgb(245,225,185)"/>
<rect x="100" y="192" width="8" height="4" fill="rgb(210,155,80)"/>
<rect x="100" y="196" width="8" height="4" fill="rgb(245,225,185)"/>
<rect x="108" y="192" width="8" height="4" fill="rgb(210,155,80)"/>
<rect x="108" y="196" width="8" height="4" fill="rgb(245,225,185)"/>
<rect x="116" y="192" width="8" height="4" fill="rgb(210,155,80)"/>
<rect x="116" y="196" width="8" height="4" fill="rgb(245,225,185)"/>
<rect x="124" y="192" width="8" height="4" fill="rgb(210,155,80)"/>
<rect x="124" y="196" width="8" height="4" fill="rgb(245,225,185)"/>
<rect x="132" y="192" width="8" height="4" fill="rgb(210,155,80)"/>
<rect x="132" y="196" width="8" height="4" fill="rgb(245,225,185)"/>
<rect x="140" y="192" width="8" height="4" fill="rgb(210,155,80)"/>
<rect x="140" y="196" width="8" height="4" fill="rgb(245,225,185)"/>
<rect x="148" y="192" width="8" height="4" fill="rgb(210,155,80)"/>
<rect x="148" y="196" width="8" height="4" fill="rgb(210,155,80)"/>
<rect x="156" y="192" width="8" height="4" fill="rgb(65,40,20)"/>
<rect x="156" y="196" width="8" height="4" fill="rgb(210,155,80)"/>
<rect x="164" y="196" width="8" height="4" fill="rgb(65,40,20)"/>
<rect x="60" y="200" width="8" height="4" fill="rgb(65,40,20)"/>
<rect x="60" y="204" width="8" height="4" fill="rgb(65,40,20)"/>
<rect x="68" y="200" width="8" height="4" fill="rgb(210,155,80)"/>
<rect x="68" y="204" width="8" height="4" fill="rgb(210,155,80)"/>
<rect x="76" y="200" width="8" height="4" fill="rgb(245,225,185)"/>
<rect x="76" y="204" width="8" height="4" fill="rgb(245,225,185)"/>
<rect x="84" y="200" width="8" height="4" fill="rgb(245,225,185)"/>
<rect x="84" y="204" width="8" height="4" fill="rgb(245,225,185)"/>
<rect x="92" y="200" width="8" height="4" fill="rgb(245,225,185)"/>
<rect x="92" y="204" width="8" height="4" fill="rgb(245,225,185)"/>
<rect x="100" y="200" width="8" height="4" fill="rgb(245,225,185)"/>
<rect x="100" y="204" width="8" height="4" fill="rgb(245,225,185)"/>
<rect x="108" y="200" width="8" height="4" fill="rgb(245,225,185)"/>
<rect x="108" y="204" width="8" height="4" fill="rgb(245,225,185)"/>
<rect x="116" y="200" width="8" height="4" fill="rgb(245,225,185)"/>
<rect x="116" y="204" width="8" height="4" fill="rgb(245,225,185)"/>
<rect x="124" y="200" width="8" height="4" fill="rgb(245,225,185)"/>
<rect x="124" y="204" width="8" height="4" fill="rgb(245,225,185)"/>
<rect x="132" y="200" width="8" height="4" fill="rgb(245,225,185)"/>
<rect x="132" y="204" width="8" height="4" fill="rgb(245,225,185)"/>
<rect x="140" y="200" width="8" height="4" fill="rgb(245,225,185)"/>
<rect x="140" y="204" width="8" height="4" fill="rgb(245,225,185)"/>
<rect x="148" y="200" width="8" height="4" fill="rgb(245,225,185)"/>
<rect x="148" y="204" width="8" height="4" fill="rgb(245,225,185)"/>
<rect x="156" y="200" width="8" height="4" fill="rgb(210,155,80)"/>
<rect x="156" y="204" width="8" height="4" fill="rgb(210,155,80)"/>
<rect x="164" y="200" width="8" height="4" fill="rgb(65,40,20)"/>
<rect x="164" y="204" width="8" height="4" fill="rgb(65,40,20)"/>
<rect x="68" y="208" width="8" height="4" fill="rgb(65,40,20)"/>
<rect x="68" y="212" width="8" height="4" fill="rgb(65,40,20)"/>
<rect x="76" y="208" width="8" height="4" fill="rgb(210,155,80)"/>
<rect x="76" y="212" width="8" height="4" fill="rgb(210,155,80)"/>
<rect x="84" y="208" width="8" height="4" fill="rgb(210,155,80)"/>
<rect x="84" y="212" width="8" height="4" fill="rgb(245,225,185)"/>
<rect x="92" y="208" width="8" height="4" fill="rgb(245,225,185)"/>
<rect x="92" y="212" width="8" height="4" fill="rgb(245,225,185)"/>
<rect x="100" y="208" width="8" height="4" fill="rgb(245,225,185)"/>
<rect x="108" y="208" width="8" height="4" fill="rgb(245,225,185)"/>
<rect x="116" y="208" width="8" height="4" fill="rgb(245,225,185)"/>
<rect x="124" y="208" width="8" height="4" fill="rgb(245,225,185)"/>
<rect x="132" y="208" width="8" height="4" fill="rgb(245,225,185)"/>
<rect x="132" y="212" width="8" height="4" fill="rgb(245,225,185)"/>
<rect x="140" y="208" width="8" height="4" fill="rgb(210,155,80)"/>
<rect x="140" y="212" width="8" height="4" fill="rgb(245,225,185)"/>
<rect x="148" y="208" width="8" height="4" fill="rgb(210,155,80)"/>
<rect x="148" y="212" width="8" height="4" fill="rgb(210,155,80)"/>
<rect x="156" y="208" width="8" height="4" fill="rgb(65,40,20)"/>
<rect x="156" y="212" width="8" height="4" fill="rgb(65,40,20)"/>
<rect x="68" y="216" width="8" height="4" fill="rgb(65,40,20)"/>
<rect x="76" y="216" width="8" height="4" fill="rgb(210,155,80)"/>
<rect x="76" y="220" width="8" height="4" fill="rgb(65,40,20)"/>
<rect x="84" y="216" width="8" height="4" fill="rgb(245,225,185)"/>
<rect x="84" y="220" width="8" height="4" fill="rgb(65,40,20)"/>
<rect x="92" y="216" width="8" height="4" fill="rgb(245,225,185)"/>
<rect x="92" y="220" width="8" height="4" fill="rgb(245,225,185)"/>
<rect x="132" y="216" width="8" height="4" fill="rgb(245,225,185)"/>
<rect x="132" y="220" width="8" height="4" fill="rgb(245,225,185)"/>
<rect x="140" y="216" width="8" height="4" fill="rgb(245,225,185)"/>
<rect x="140" y="220" width="8" height="4" fill="rgb(65,40,20)"/>
<rect x="148" y="216" width="8" height="4" fill="rgb(210,155,80)"/>
<rect x="148" y="220" width="8" height="4" fill="rgb(65,40,20)"/>
<rect x="156" y="216" width="8" height="4" fill="rgb(65,40,20)"/>
<rect x="84" y="224" width="8" height="4" fill="rgb(245,225,185)"/>
<rect x="92" y="224" width="8" height="4" fill="rgb(245,225,185)"/>
<rect x="132" y="224" width="8" height="4" fill="rgb(245,225,185)"/>
<rect x="140" y="224" width="8" height="4" fill="rgb(245,225,185)"/>
<text x="20" y="248" fill="#a6e3a1" font-family="monospace" font-size="12">Pet is here! Type 'pet-stop' to dismiss.</text>
</svg>